<svg width="428" height="368" viewBox="0 0 428 368" fill="none" xmlns="http://www.w3.org/2000/svg">
<circle cx="116.333" cy="278.667" r="66.6667" fill="#FCE4EC"/>
<circle cx="316.333" cy="278.667" r="66.6667" fill="#FCE4EC"/>
<path d="M88.8477 222.43C96.6114 217.475 105.47 214.083 114.979 212.699L100.105 340.664C91.2947 337.17 83.4061 331.853 76.9048 325.179L88.8477 222.43Z" fill="white"/>
<path d="M288.848 222.43C296.611 217.475 305.47 214.083 314.979 212.699L300.105 340.664C291.295 337.17 283.406 331.853 276.905 325.179L288.848 222.43Z" fill="white"/>
<circle cx="116.333" cy="278.667" r="66.6667" stroke="#EC407A" stroke-width="3"/>
<circle cx="316.333" cy="278.667" r="66.6667" stroke="#EC407A" stroke-width="3"/>
<path d="M183 278.667C188.556 273.111 195.5 262 216.334 262C237.167 262 244.111 273.111 249.667 278.667" stroke="#EC407A" stroke-width="3" stroke-linecap="round"/>
<path d="M208 128.667C288.987 128.667 332.007 149.032 404.189 185.095C405.133 185.567 404.819 187 403.764 187H12.2361C11.1808 187 10.8674 185.567 11.8114 185.095C83.9929 149.032 127.013 128.667 208 128.667Z" fill="#EC407A" fill-opacity="0.9"/>
<path d="M141.111 13.3355C141.221 12.6719 141.942 12.3046 142.544 12.6055L190.269 36.4679C190.953 36.8097 191.741 36.8777 192.473 36.6581L273.579 12.3261C274.156 12.1531 274.754 12.5255 274.853 13.1196L291.139 110.836C291.241 111.445 290.771 112 290.153 112H125.847C125.229 112 124.759 111.445 124.861 110.836L141.111 13.3355Z" fill="#EC407A" fill-opacity="0.9"/>
</svg>
