<svg width="1001" height="723" viewBox="0 0 1001 723" fill="none" xmlns="http://www.w3.org/2000/svg">
<path d="M833.932 681.645C764.734 667.539 643.316 665.661 566.144 685.127C554.31 688.096 540.487 691.571 525.067 695.156C457.613 710.828 359.773 728.868 265.816 719.833C241.376 717.602 217.182 713.2 193.522 706.678C60.0473 669.136 -26.0257 495.549 7.76798 365.631C66.7288 138.948 260.961 104.642 411.578 107.352C562.194 110.062 825.09 157.545 945.068 330.419C1077.35 521.013 945.068 704.37 833.932 681.645Z" fill="#FCE4EC"/>
<path d="M798.462 211.399H550.502C548.14 211.399 545.874 212.337 544.203 214.008C542.532 215.679 541.594 217.945 541.594 220.307C541.594 222.67 542.532 224.936 544.203 226.607C545.874 228.278 548.14 229.216 550.502 229.216H798.462C800.824 229.216 803.09 228.278 804.761 226.607C806.432 224.936 807.37 222.67 807.37 220.307C807.37 217.945 806.432 215.679 804.761 214.008C803.09 212.337 800.824 211.399 798.462 211.399Z" fill="url(#paint0_linear_1119_43050)"/>
<path d="M910.852 586.04C909.248 583.858 904.979 581.816 899.345 579.099C899.345 579.099 897.162 580.799 897.013 580.933C897.013 580.933 897.013 581.074 897.147 581.281L896.308 581.875L895.402 580.933L893.108 582.87C893.108 582.87 893.94 594.474 899.315 594.867C901.23 595.008 902.136 593.821 902.544 592.455C904.95 594.199 906.932 594.31 907.318 593.093C907.498 592.275 907.382 591.42 906.991 590.68C911 591.512 912.329 588.037 910.852 586.04Z" fill="url(#paint1_linear_1119_43050)"/>
<path d="M591.467 602.677C616.515 604.029 646.619 601.037 646.619 601.037L653.65 613.969L618.906 616.419L591.467 602.677Z" fill="#D39E5F"/>
<path d="M627.383 373.761C616.099 373.761 606.923 362.625 606.923 348.972C606.923 339.507 611.474 330.732 618.519 326.634C620.13 325.74 621.474 324.435 622.415 322.851C623.355 321.268 623.858 319.463 623.872 317.621V262.996C623.872 262.7 623.989 262.417 624.198 262.208C624.407 261.999 624.69 261.882 624.985 261.882H629.803C630.099 261.882 630.382 261.999 630.591 262.208C630.8 262.417 630.917 262.7 630.917 262.996V317.621C630.931 319.463 631.433 321.268 632.374 322.851C633.314 324.435 634.659 325.74 636.27 326.634C643.315 330.732 647.866 339.507 647.866 348.972C647.844 362.64 638.668 373.761 627.383 373.761Z" fill="url(#paint2_linear_1119_43050)"/>
<path d="M698.528 373.761C683.331 373.761 670.97 362.625 670.97 348.972V262.996C670.97 262.7 671.088 262.417 671.296 262.208C671.505 261.999 671.788 261.882 672.084 261.882H676.902C677.197 261.882 677.481 261.999 677.689 262.208C677.898 262.417 678.016 262.7 678.016 262.996V340.204C678.016 341.78 678.641 343.29 679.755 344.404C680.869 345.518 682.379 346.144 683.955 346.144H724.89C725.171 346.143 725.441 346.248 725.648 346.438C725.854 346.628 725.981 346.889 726.004 347.168C726.048 347.747 726.071 348.334 726.071 348.92C726.085 362.64 713.717 373.761 698.528 373.761Z" fill="url(#paint3_linear_1119_43050)"/>
<path d="M783.65 329.707L776.367 322.521C775.057 321.222 774.016 319.677 773.304 317.975C772.592 316.273 772.222 314.447 772.217 312.602V262.996C772.217 262.7 772.1 262.417 771.891 262.208C771.682 261.999 771.399 261.882 771.103 261.882H766.285C765.99 261.882 765.707 261.999 765.498 262.208C765.289 262.417 765.172 262.7 765.172 262.996V312.602C765.166 314.447 764.797 316.273 764.085 317.975C763.373 319.677 762.332 321.222 761.022 322.521L753.739 329.707C752.346 331.089 751.24 332.732 750.483 334.542C749.726 336.353 749.334 338.294 749.329 340.256V365.631C749.329 365.927 749.446 366.21 749.655 366.419C749.864 366.628 750.147 366.745 750.443 366.745H786.931C787.227 366.745 787.51 366.628 787.719 366.419C787.927 366.21 788.045 365.927 788.045 365.631V340.256C788.042 338.295 787.653 336.354 786.898 334.544C786.144 332.734 785.04 331.09 783.65 329.707V329.707Z" fill="url(#paint4_linear_1119_43050)"/>
<path d="M627.384 213.314C625.069 213.316 622.85 214.236 621.213 215.873C619.576 217.51 618.655 219.73 618.653 222.045V265.014C618.653 265.31 618.771 265.593 618.979 265.802C619.188 266.01 619.472 266.128 619.767 266.128H635.001C635.296 266.128 635.579 266.01 635.788 265.802C635.997 265.593 636.114 265.31 636.114 265.014V222.045C636.112 219.73 635.192 217.51 633.555 215.873C631.918 214.236 629.699 213.316 627.384 213.314V213.314Z" fill="url(#paint5_linear_1119_43050)"/>
<path d="M768.698 213.314C766.383 213.316 764.163 214.236 762.527 215.873C760.89 217.51 759.969 219.73 759.967 222.045V265.014C759.967 265.31 760.085 265.593 760.293 265.802C760.502 266.01 760.786 266.128 761.081 266.128H776.315C776.61 266.128 776.893 266.01 777.102 265.802C777.311 265.593 777.428 265.31 777.428 265.014V222.045C777.426 219.73 776.506 217.51 774.869 215.873C773.232 214.236 771.013 213.316 768.698 213.314V213.314Z" fill="url(#paint6_linear_1119_43050)"/>
<path d="M674.489 213.314C672.174 213.316 669.955 214.236 668.318 215.873C666.681 217.51 665.761 219.73 665.759 222.045V265.014C665.759 265.31 665.876 265.593 666.085 265.802C666.294 266.01 666.577 266.128 666.872 266.128H682.106C682.402 266.128 682.685 266.01 682.894 265.802C683.103 265.593 683.22 265.31 683.22 265.014V222.045C683.218 219.73 682.297 217.51 680.661 215.873C679.024 214.236 676.804 213.316 674.489 213.314Z" fill="url(#paint7_linear_1119_43050)"/>
<path d="M484.503 131.569C484.503 131.569 479.901 169.327 476.909 183.834C468.468 224.747 458.832 241.05 448.015 250.604C437.198 260.159 423.145 259.469 423.145 259.469C423.145 259.469 419.745 264.918 415.261 272.126C406.612 286.024 393.902 306.447 393.672 306.9C393.33 307.59 327.599 256.247 327.599 256.247C339.002 224.012 343.382 191.889 343.382 191.889C326.782 183.247 328.928 165.541 342.157 162.75C341.585 150.182 342.184 137.589 343.946 125.133L365.394 126.113L484.503 131.569Z" fill="#F2BA70"/>
<path d="M371.021 182.921C369.113 176.544 355.727 160.768 342.149 162.743C341.577 150.175 342.176 137.582 343.938 125.125L365.393 126.113C379.068 133.693 393.189 141.495 393.189 141.495C393.968 170.018 371.021 182.921 371.021 182.921Z" fill="url(#paint8_linear_1119_43050)"/>
<path d="M506.329 37.4927L490.479 111.583L481.949 151.546C481.949 151.546 471.355 157.686 434.221 155.793C397.086 153.9 358.259 140.388 343.961 125.132C344.49 121.049 345.02 117.038 345.549 113.098C345.935 110.198 346.326 107.337 346.722 104.516C347.079 101.937 347.435 99.3984 347.791 96.899C347.895 96.1566 347.992 95.4959 348.096 94.8054C348.685 90.6926 349.271 86.6861 349.855 82.7861C351.251 73.4394 352.617 64.7459 353.909 56.8023C354.102 55.6145 354.295 54.449 354.48 53.2983C354.666 52.1475 354.859 51.0117 355.045 49.8981C355.23 48.7845 355.416 47.6709 355.594 46.6093L356.396 41.8654C356.611 40.6182 356.819 39.4007 357.027 38.2128C357.146 37.5224 357.264 36.832 357.383 36.1564C357.383 36.0747 357.383 36.0005 357.383 35.9263C357.487 35.3249 357.591 34.7384 357.695 34.1519C358.041 32.1722 358.375 30.2841 358.697 28.4875L358.92 27.2477C359.031 26.6315 359.135 26.0227 359.247 25.4288C359.84 22.14 360.382 19.2002 360.858 16.6315C360.932 16.2529 360.999 15.8891 361.073 15.5179C361.147 15.1467 361.236 14.627 361.318 14.1964C361.916 11.0422 363.492 8.15635 365.823 5.94831C368.154 3.74027 371.12 2.32212 374.302 1.89499C408.868 -2.83405 469.329 4.97591 498.668 20.8408C501.573 22.4153 503.89 24.8889 505.271 27.891C506.653 30.8931 507.024 34.2619 506.329 37.4927V37.4927Z" fill="url(#paint9_linear_1119_43050)"/>
<path d="M423.144 259.469C423.144 259.469 419.744 264.918 415.26 272.126C384.822 268.86 377.554 243.173 375.705 235.868C373.567 227.449 374.725 207.828 374.725 207.828C383.426 247.761 404.51 258.897 423.144 259.469Z" fill="#D39E5F"/>
<path d="M588.535 590.716C570.317 623.731 541.178 636.002 531.839 635.802C522.499 635.601 520.703 627.836 520.703 627.836C521.876 644.807 523.672 672.38 525.09 695.149C457.637 710.821 359.797 728.861 265.839 719.826C267.413 703.575 270.234 690.472 270.925 679.061C271.355 672.008 271.266 658.868 270.992 645.26C270.531 622.847 269.559 599.143 269.559 599.143L252.127 595.586L251.66 595.49L238.616 592.832C218.764 615.267 188.994 634.518 169.046 615.95C149.744 597.984 122.275 566.834 116.188 550.026C110.1 533.218 113.218 502.431 118.749 491.273C124.28 480.115 172.261 383.574 192.832 344.279C210.65 310.233 228.467 297.315 238.445 292.208C239.974 291.421 241.311 290.819 242.439 290.359C250.91 286.862 306.983 273.826 307.651 273.418C311.318 254.554 312.224 249.216 314.102 242.898C315.75 237.367 324.399 234.42 334.733 233.135C334.436 234.249 334.125 235.363 333.805 236.506C332.751 240.285 331.578 244.16 330.346 248.087C338.512 250.515 375.298 260.508 380.829 266.773C385.847 272.43 385.758 282.089 385.758 282.089H403.368C402.551 256.291 423.152 259.424 423.152 259.424L424.377 276.009C424.377 276.009 462.173 279.884 476.293 288.303C490.413 296.721 508.624 320.641 519.099 364.353C529.574 408.065 540.272 475.467 551.43 503.248C562.589 531.028 581.943 536.945 588.55 551.288C595.157 565.631 588.535 590.716 588.535 590.716Z" fill="url(#paint10_linear_1119_43050)"/>
<path d="M251.637 595.49L238.593 592.833C218.742 615.268 188.972 634.518 169.024 615.951C149.721 597.985 122.253 566.834 116.165 550.026C110.078 533.219 113.196 502.432 118.726 491.273C124.257 480.115 172.238 383.574 192.81 344.28C210.627 310.234 228.445 297.316 238.422 292.208C259.892 306.143 281.244 329.773 283.708 369.076C287.064 422.617 266.314 528.764 251.637 595.49Z" fill="url(#paint11_linear_1119_43050)"/>
<path d="M326.136 282.446H325.921C325.364 282.342 312.29 279.781 306.834 274.28C306.638 274.068 306.532 273.788 306.539 273.499C306.545 273.211 306.663 272.936 306.868 272.733C307.073 272.53 307.349 272.414 307.638 272.41C307.926 272.407 308.205 272.515 308.415 272.713C313.389 277.739 326.233 280.248 326.337 280.271C326.483 280.284 326.625 280.327 326.755 280.395C326.885 280.464 327 280.557 327.094 280.67C327.187 280.783 327.258 280.914 327.301 281.054C327.345 281.194 327.36 281.342 327.346 281.488C327.333 281.634 327.29 281.777 327.222 281.906C327.153 282.036 327.06 282.151 326.947 282.245C326.833 282.339 326.703 282.41 326.563 282.453C326.422 282.496 326.275 282.512 326.129 282.498L326.136 282.446Z" fill="#C5E0E2"/>
<path d="M588.534 590.725C570.316 623.739 541.177 636.011 531.838 635.81C523.092 635.595 520.939 628.78 520.702 627.933V627.844C521.875 644.815 523.672 672.388 525.089 695.157C490.531 703.182 447.992 711.838 402.09 717.147C401.028 597.792 369.87 501.548 366.797 487.629C349.142 407.799 343.508 340.308 340.36 318.177C337.212 296.047 337.064 282.134 337.064 282.134H403.359C402.543 256.336 423.144 259.469 423.144 259.469L424.369 276.054C424.369 276.054 448.638 278.541 465.55 283.864C469.282 284.947 472.882 286.441 476.285 288.318C490.39 296.745 508.616 320.657 519.091 364.369C529.566 408.081 540.264 475.483 551.422 503.263C562.58 531.044 581.934 536.96 588.542 551.304C595.149 565.647 588.534 590.725 588.534 590.725Z" fill="url(#paint12_linear_1119_43050)"/>
<path d="M402.067 718.26C401.773 718.26 401.491 718.144 401.283 717.937C401.074 717.73 400.956 717.448 400.954 717.154C400.954 716.456 400.954 715.761 400.954 715.068C399.736 612.618 376.061 526.07 368.289 497.636C367.034 493.048 366.128 489.737 365.712 487.866C351.696 424.533 345.141 367.999 341.637 337.628C340.686 329.402 339.929 322.907 339.283 318.326C336.165 296.351 335.98 282.275 335.98 282.134C335.978 281.987 336.005 281.84 336.06 281.704C336.115 281.567 336.197 281.442 336.3 281.337C336.404 281.232 336.527 281.149 336.664 281.092C336.8 281.035 336.946 281.006 337.093 281.006H414.703C414.998 281.006 415.281 281.123 415.49 281.332C415.699 281.541 415.816 281.824 415.816 282.119C415.816 282.415 415.699 282.698 415.49 282.907C415.281 283.116 414.998 283.233 414.703 283.233H338.236C338.695 294.883 339.773 306.501 341.466 318.036C342.119 322.647 342.876 329.172 343.827 337.391C347.346 367.717 353.894 424.176 367.858 487.398C368.259 489.21 369.157 492.506 370.404 497.05C378.199 525.55 401.934 612.276 403.159 715.038C403.159 715.736 403.159 716.434 403.159 717.132C403.16 717.278 403.132 717.423 403.077 717.559C403.022 717.694 402.941 717.817 402.838 717.921C402.735 718.026 402.613 718.108 402.478 718.165C402.343 718.222 402.199 718.252 402.053 718.253L402.067 718.26Z" fill="#C5E0E2"/>
<path d="M359.105 308.57C362.16 308.57 364.636 306.094 364.636 303.039C364.636 299.985 362.16 297.508 359.105 297.508C356.05 297.508 353.574 299.985 353.574 303.039C353.574 306.094 356.05 308.57 359.105 308.57Z" fill="#308B85"/>
<path d="M428.542 305.913C431.596 305.913 434.073 303.436 434.073 300.382C434.073 297.327 431.596 294.851 428.542 294.851C425.487 294.851 423.011 297.327 423.011 300.382C423.011 303.436 425.487 305.913 428.542 305.913Z" fill="#308B85"/>
<path d="M373.189 380.174C376.243 380.174 378.72 377.698 378.72 374.644C378.72 371.589 376.243 369.113 373.189 369.113C370.134 369.113 367.658 371.589 367.658 374.644C367.658 377.698 370.134 380.174 373.189 380.174Z" fill="#308B85"/>
<path d="M441.14 377.524C444.194 377.524 446.671 375.048 446.671 371.993C446.671 368.939 444.194 366.463 441.14 366.463C438.085 366.463 435.609 368.939 435.609 371.993C435.609 375.048 438.085 377.524 441.14 377.524Z" fill="#308B85"/>
<path d="M391.697 466.745C394.752 466.745 397.228 464.269 397.228 461.214C397.228 458.16 394.752 455.683 391.697 455.683C388.643 455.683 386.166 458.16 386.166 461.214C386.166 464.269 388.643 466.745 391.697 466.745Z" fill="#308B85"/>
<path d="M456.054 459.61C459.109 459.61 461.585 457.134 461.585 454.079C461.585 451.025 459.109 448.549 456.054 448.549C453 448.549 450.524 451.025 450.524 454.079C450.524 457.134 453 459.61 456.054 459.61Z" fill="#308B85"/>
<path d="M415.639 550.383C418.694 550.383 421.17 547.907 421.17 544.852C421.17 541.798 418.694 539.321 415.639 539.321C412.584 539.321 410.108 541.798 410.108 544.852C410.108 547.907 412.584 550.383 415.639 550.383Z" fill="#308B85"/>
<path d="M474.057 543.256C477.112 543.256 479.588 540.779 479.588 537.725C479.588 534.67 477.112 532.194 474.057 532.194C471.003 532.194 468.526 534.67 468.526 537.725C468.526 540.779 471.003 543.256 474.057 543.256Z" fill="#308B85"/>
<path d="M430.138 646.738C433.192 646.738 435.669 644.262 435.669 641.207C435.669 638.153 433.192 635.676 430.138 635.676C427.083 635.676 424.607 638.153 424.607 641.207C424.607 644.262 427.083 646.738 430.138 646.738Z" fill="#308B85"/>
<path d="M492.981 639.604C496.036 639.604 498.512 637.127 498.512 634.073C498.512 631.018 496.036 628.542 492.981 628.542C489.927 628.542 487.451 631.018 487.451 634.073C487.451 637.127 489.927 639.604 492.981 639.604Z" fill="#308B85"/>
<path d="M588.535 590.724C570.316 623.738 541.178 636.01 531.838 635.81C523.093 635.594 520.94 628.779 520.702 627.933V627.844C514.63 568.675 505.899 536.285 498.059 497.353C490.22 458.422 482.633 416.18 477.413 390.308C472.194 364.435 469.811 358.474 470.769 342.127C472.254 316.707 470.197 295.668 465.572 283.864C469.304 284.947 472.905 286.44 476.307 288.318C490.413 296.744 508.639 320.657 519.114 364.369C529.589 408.081 540.287 475.483 551.445 503.263C562.603 531.043 581.957 536.96 588.564 551.303C595.172 565.646 588.535 590.724 588.535 590.724Z" fill="url(#paint13_linear_1119_43050)"/>
<path d="M598.379 586.04C597.325 595.238 576.523 603.226 576.523 603.226C574.875 605.097 573.182 606.938 571.467 608.668C552.365 628.2 530.264 639.596 525.439 627.822C522.551 620.806 526.003 609.93 531.704 599.284C533.004 596.841 534.436 594.406 535.921 592.038C539.573 586.24 543.676 580.74 548.193 575.587C561.43 560.687 577.146 551.83 584.83 554.384C585.454 554.609 586.038 554.932 586.56 555.342V555.342C592.722 560.056 599.344 577.68 598.379 586.04Z" fill="url(#paint14_linear_1119_43050)"/>
<path d="M667.74 621.511C667.065 626.188 657.97 630.887 652.529 618.215C649.143 610.338 647.035 603.768 647.035 603.768C647.035 603.768 622.536 606.693 600.91 605.052C574.926 606.24 578.245 612.179 573.501 609.699C573.078 609.477 572.387 609.135 571.467 608.69C567.243 606.641 558.326 602.469 549.796 598.504L535.906 592.06C539.558 586.262 543.661 580.762 548.178 575.609C561.415 560.709 577.131 551.852 584.815 554.406L586.545 555.364C593.909 559.454 603.739 565.015 610.301 568.779L617.413 572.84C617.933 573.174 619.975 573.619 622.781 574.102C629.856 575.319 641.771 576.811 646.166 577.583C652.306 578.66 658.23 580.167 660.925 590.947C663.62 601.726 668.639 615.26 667.74 621.511Z" fill="#F2BA70"/>
<path d="M743.784 657.31L698.454 648.854C668.075 643.212 632.314 636.582 624.838 635.313C611.356 633.026 569.203 628.074 562.908 621.334C555.847 613.776 570.242 601.051 586.011 602.217C592.217 602.677 620.161 607.287 650.161 612.432C650.851 614.214 651.646 616.144 652.529 618.23C657.971 630.903 667.065 626.204 667.741 621.527C667.931 619.482 667.816 617.42 667.399 615.409C683.413 618.186 698.973 620.918 711.141 623.063C725.544 625.61 735.18 627.332 735.18 627.332L743.784 657.31Z" fill="url(#paint15_linear_1119_43050)"/>
<path d="M520.679 628.95C520.404 628.95 520.138 628.847 519.933 628.662C519.729 628.477 519.601 628.222 519.573 627.948C514.807 581.57 508.348 551.355 502.097 522.135C500.397 514.176 498.638 505.958 496.952 497.576C492.684 476.359 488.445 453.938 484.703 434.154C481.607 417.769 478.675 402.29 476.307 390.523C475.72 387.628 475.185 384.985 474.688 382.55C470.753 363.248 469.425 356.774 469.64 342.104C469.644 341.812 469.763 341.532 469.971 341.327C470.18 341.121 470.461 341.006 470.753 341.006V341.006C470.9 341.008 471.044 341.038 471.178 341.096C471.313 341.154 471.434 341.237 471.537 341.342C471.639 341.447 471.719 341.571 471.773 341.707C471.827 341.843 471.854 341.988 471.852 342.134C471.644 356.559 472.958 362.995 476.856 382.104C477.353 384.547 477.895 387.19 478.474 390.085C480.85 401.867 483.782 417.346 486.878 433.738C490.59 453.515 494.859 475.928 499.128 497.138C500.813 505.505 502.572 513.723 504.272 521.637C510.538 550.917 517.012 581.192 521.785 627.688C521.801 627.834 521.787 627.981 521.746 628.122C521.704 628.262 521.635 628.393 521.542 628.507C521.45 628.621 521.336 628.715 521.207 628.785C521.078 628.855 520.936 628.898 520.791 628.913L520.679 628.95Z" fill="#C5E0E2"/>
<path d="M514.756 389.194C514.756 389.194 478.312 431.243 472.707 447.643C465.32 469.246 476.062 478.779 475.855 483.567C475.676 487.776 442.209 522.595 411.578 554.325C395.349 571.132 379.923 587.064 370.657 597.131L390.702 614.852C390.702 614.852 407.153 593.545 426.389 568.727C452.848 534.577 484.585 493.819 486.003 492.75C488.46 490.909 505.535 502.476 524.607 488.229C545.587 472.535 564.348 442.854 571.712 432.015L514.756 389.194ZM496.619 445.497C495.868 445.498 495.14 445.235 494.563 444.755C493.897 444.208 493.475 443.419 493.39 442.562C493.305 441.704 493.564 440.848 494.11 440.182L510.264 420.486C510.811 419.82 511.599 419.399 512.456 419.315C513.313 419.231 514.168 419.49 514.834 420.037C515.499 420.583 515.92 421.372 516.005 422.229C516.089 423.085 515.829 423.941 515.283 424.606L499.129 444.287C498.827 444.664 498.446 444.968 498.011 445.177C497.577 445.387 497.101 445.496 496.619 445.497V445.497ZM504.889 461.607C504.274 461.61 503.67 461.437 503.149 461.109C502.628 460.781 502.212 460.312 501.948 459.755C501.685 459.199 501.585 458.579 501.662 457.968C501.738 457.357 501.988 456.781 502.38 456.306L527.681 425.482C527.951 425.153 528.283 424.88 528.659 424.679C529.035 424.477 529.446 424.352 529.87 424.31C530.294 424.268 530.722 424.31 531.13 424.433C531.538 424.557 531.917 424.759 532.247 425.029C532.576 425.299 532.849 425.632 533.05 426.007C533.251 426.383 533.377 426.795 533.419 427.218C533.461 427.642 533.419 428.071 533.295 428.478C533.172 428.886 532.97 429.266 532.699 429.595L507.399 460.427C507.094 460.797 506.711 461.095 506.277 461.299C505.843 461.503 505.369 461.609 504.889 461.607ZM524.815 465.393C524.269 466.059 523.481 466.48 522.624 466.564C521.767 466.648 520.911 466.389 520.246 465.842C519.58 465.296 519.159 464.508 519.075 463.651C518.991 462.794 519.25 461.939 519.797 461.273L535.951 441.592C536.498 440.927 537.286 440.506 538.143 440.421C539 440.337 539.855 440.597 540.521 441.143C541.186 441.689 541.607 442.478 541.692 443.335C541.776 444.192 541.516 445.047 540.97 445.712L524.815 465.393Z" fill="url(#paint16_linear_1119_43050)"/>
<path d="M506.33 37.4931L490.479 111.584L489.462 111.725L488.817 111.807L487.866 111.925L487.124 112.015L486.233 112.111L483.887 112.341C481.007 112.601 477.822 112.787 474.34 112.876H473.093C460.813 113.098 444.934 112.037 425.342 108.184L422.833 107.686L418.928 106.892L416.366 106.357L414.303 105.919L412.818 105.593C410.838 105.162 408.886 104.727 406.96 104.286L404.28 103.663L402.744 103.291L401.37 102.957L398.883 102.341C395.238 101.413 391.764 100.47 388.438 99.4978L386.285 98.8593L385.899 98.7405L383.894 98.1169L383.657 98.0427L381.34 97.3003C380.004 96.8623 378.697 96.4094 377.413 95.9566L375.795 95.3701C374.651 94.9618 373.567 94.5312 372.424 94.108L370.479 93.3656L368.668 92.6232C366.52 91.7175 364.439 90.7796 362.424 89.8096C361.994 89.6091 361.563 89.3938 361.14 89.1859L360.19 88.7034C358.987 88.0946 357.804 87.471 356.641 86.8326L355.416 86.1496C353.53 85.0805 351.704 83.9744 349.893 82.8162C351.288 73.4695 352.654 64.7761 353.946 56.8325C354.139 55.6447 354.332 54.4791 354.518 53.3284C354.703 52.1777 354.896 51.0418 355.082 49.9282C355.267 48.8146 355.453 47.701 355.631 46.6394L356.433 41.8955C356.648 40.6557 356.856 39.4382 357.064 38.243C357.183 37.5525 357.302 36.8621 357.42 36.1865C357.42 36.1049 357.42 36.0306 357.42 35.9564C357.532 35.3551 357.628 34.7611 357.732 34.1821C358.079 32.2024 358.413 30.3142 358.734 28.5176L358.957 27.2778C359.069 26.6616 359.173 26.0529 359.284 25.459C359.878 22.1702 360.42 19.2303 360.895 16.6616C360.969 16.283 361.036 15.9192 361.11 15.548C361.184 15.1768 361.273 14.6571 361.355 14.2266C361.834 11.6874 362.948 9.31107 364.595 7.3195C366.241 5.32794 368.365 3.78617 370.769 2.83826C371.904 2.39374 373.087 2.08475 374.295 1.9177C408.861 -2.81134 469.321 4.99862 498.661 20.8635C501.568 22.4372 503.888 24.9094 505.275 27.9108C506.661 30.9122 507.039 34.2815 506.352 37.5154L506.33 37.4931Z" fill="url(#paint17_linear_1119_43050)"/>
<path d="M375.438 96.3876H375.356C375.062 96.3666 374.788 96.2298 374.594 96.0071C374.401 95.7844 374.304 95.494 374.324 95.1997C376.336 66.0683 383.463 29.691 383.537 29.3272C383.559 29.1782 383.612 29.0353 383.691 28.907C383.77 28.7787 383.874 28.6678 383.997 28.581C384.12 28.4941 384.26 28.4332 384.407 28.4018C384.554 28.3705 384.706 28.3693 384.854 28.3985C385.002 28.4277 385.142 28.4865 385.267 28.5715C385.391 28.6565 385.497 28.7658 385.578 28.8929C385.659 29.02 385.713 29.1621 385.738 29.3108C385.762 29.4595 385.756 29.6116 385.72 29.7578C385.646 30.1216 378.548 66.3578 376.544 95.3482C376.525 95.6292 376.401 95.8927 376.195 96.0855C375.99 96.2784 375.719 96.3863 375.438 96.3876V96.3876Z" fill="#C5E0E2"/>
<path d="M405.23 105.036H405.119C404.826 105.006 404.556 104.861 404.37 104.633C404.183 104.404 404.095 104.112 404.124 103.818C405.223 92.8235 408.913 55.3104 410.412 34.3082C410.433 34.0128 410.57 33.7378 410.793 33.5436C411.017 33.3493 411.308 33.2518 411.604 33.2725C411.899 33.2932 412.174 33.4303 412.368 33.6538C412.563 33.8773 412.66 34.1687 412.639 34.4641C411.155 55.496 407.443 93.0314 406.351 104.034C406.323 104.311 406.193 104.567 405.985 104.753C405.778 104.938 405.509 105.039 405.23 105.036V105.036Z" fill="#C5E0E2"/>
<path d="M431.734 110.508H431.556C431.265 110.46 431.004 110.299 430.831 110.06C430.659 109.82 430.588 109.522 430.635 109.231C432.12 99.758 435.832 73.596 437.213 35.4519C437.218 35.3057 437.252 35.1619 437.313 35.0289C437.374 34.8958 437.461 34.7761 437.568 34.6765C437.675 34.5768 437.801 34.4993 437.938 34.4483C438.075 34.3973 438.221 34.3738 438.367 34.3792C438.514 34.3845 438.657 34.4186 438.79 34.4796C438.924 34.5405 439.043 34.627 439.143 34.7342C439.243 34.8414 439.32 34.9672 439.371 35.1043C439.422 35.2415 439.446 35.3873 439.44 35.5336C438.052 73.8039 434.355 100.07 432.833 109.58C432.789 109.839 432.655 110.075 432.453 110.245C432.252 110.415 431.997 110.508 431.734 110.508Z" fill="#C5E0E2"/>
<path d="M455.394 113.477C455.315 113.485 455.235 113.485 455.156 113.477C455.013 113.445 454.878 113.386 454.758 113.302C454.639 113.218 454.536 113.111 454.458 112.988C454.379 112.864 454.326 112.727 454.3 112.583C454.275 112.439 454.278 112.291 454.31 112.148C456.827 100.685 461.571 76.2979 465.119 41.7989C465.134 41.6526 465.178 41.5108 465.248 41.3815C465.318 41.2522 465.413 41.1379 465.527 41.0452C465.641 40.9524 465.772 40.8831 465.913 40.8411C466.054 40.7991 466.202 40.7853 466.348 40.8004C466.494 40.8155 466.636 40.8592 466.765 40.9292C466.895 40.9991 467.009 41.0938 467.102 41.2079C467.194 41.322 467.264 41.4532 467.306 41.5941C467.348 41.735 467.361 41.8828 467.346 42.029C463.79 76.6394 459.017 101.116 456.493 112.631C456.432 112.875 456.291 113.092 456.091 113.246C455.892 113.399 455.646 113.481 455.394 113.477Z" fill="#C5E0E2"/>
<path d="M479.944 113.752C479.779 113.752 479.616 113.715 479.467 113.644C479.318 113.574 479.186 113.471 479.082 113.343C478.977 113.215 478.902 113.065 478.863 112.905C478.823 112.745 478.82 112.577 478.853 112.416C481.592 99.0526 485.535 76.907 488.549 47.3375C488.579 47.0421 488.726 46.771 488.956 46.5837C489.187 46.3965 489.482 46.3084 489.777 46.3389C490.073 46.3695 490.344 46.5161 490.531 46.7465C490.718 46.9769 490.806 47.2723 490.776 47.5676C487.725 77.2633 483.797 99.446 481.051 112.898C480.991 113.145 480.849 113.365 480.648 113.52C480.447 113.675 480.199 113.757 479.944 113.752V113.752Z" fill="#C5E0E2"/>
<path d="M437.714 184.665C438.53 181.556 437.497 178.591 435.407 178.043C433.317 177.494 430.961 179.57 430.146 182.68C429.33 185.789 430.363 188.754 432.453 189.302C434.543 189.851 436.899 187.775 437.714 184.665Z" fill="#654B1E"/>
<path d="M473.413 182.136C474.153 179.312 473.217 176.62 471.321 176.123C469.426 175.625 467.288 177.511 466.548 180.335C465.807 183.159 466.743 185.851 468.639 186.348C470.535 186.846 472.672 184.96 473.413 182.136Z" fill="#654B1E"/>
<path d="M409.277 173.708C408.967 173.708 408.665 173.612 408.412 173.432C408.16 173.252 407.97 172.998 407.87 172.705C407.769 172.412 407.762 172.095 407.851 171.798C407.94 171.502 408.119 171.24 408.364 171.05C423.055 159.55 443.152 161.488 448.453 166.9C448.728 167.181 448.881 167.561 448.877 167.955C448.873 168.349 448.712 168.725 448.43 169.001C448.149 169.276 447.769 169.429 447.375 169.425C446.981 169.421 446.605 169.26 446.329 168.979C442.514 165.081 423.969 162.609 410.197 173.388C409.935 173.595 409.611 173.708 409.277 173.708Z" fill="#654B1E"/>
<path d="M464.615 167.895C464.303 167.896 463.998 167.799 463.744 167.618C463.49 167.436 463.299 167.179 463.2 166.883C463.1 166.587 463.097 166.267 463.19 165.969C463.282 165.671 463.467 165.409 463.716 165.222C469.604 160.768 475.298 159.416 477.488 159.283C477.882 159.265 478.266 159.404 478.557 159.67C478.848 159.936 479.022 160.307 479.039 160.701C479.057 161.095 478.918 161.479 478.652 161.77C478.386 162.061 478.015 162.235 477.622 162.252C475.446 162.349 470.428 163.848 465.506 167.56C465.253 167.767 464.94 167.884 464.615 167.895Z" fill="#654B1E"/>
<path d="M458.319 213.634C455.1 213.546 452.021 212.299 449.648 210.122C449.539 210.025 449.449 209.906 449.385 209.774C449.321 209.642 449.284 209.499 449.275 209.352C449.267 209.206 449.287 209.059 449.335 208.921C449.383 208.782 449.458 208.654 449.555 208.544C449.653 208.435 449.771 208.345 449.903 208.281C450.035 208.217 450.179 208.18 450.325 208.171C450.471 208.163 450.618 208.183 450.757 208.231C450.896 208.279 451.023 208.354 451.133 208.452C454.251 211.206 458.371 212.164 461.378 210.775C463.969 209.602 465.402 206.937 465.394 203.255C465.394 198.058 463.486 194.346 461.809 191.035C460.665 188.808 459.678 186.855 459.485 184.836C459.471 184.69 459.487 184.542 459.53 184.402C459.573 184.262 459.644 184.131 459.738 184.018C459.927 183.79 460.199 183.646 460.495 183.619C460.79 183.591 461.084 183.682 461.312 183.871C461.541 184.061 461.685 184.333 461.712 184.628C461.861 186.224 462.766 187.984 463.806 190.025C465.513 193.366 467.636 197.531 467.636 203.262C467.636 207.798 465.691 211.28 462.306 212.809C461.051 213.366 459.692 213.647 458.319 213.634V213.634Z" fill="#BB8A52"/>
<path d="M443.278 229.595C438.972 229.595 430.784 228.57 425.676 221.473C425.562 221.314 425.48 221.135 425.436 220.945C425.391 220.755 425.384 220.558 425.415 220.365C425.447 220.173 425.516 219.988 425.618 219.822C425.721 219.656 425.856 219.512 426.014 219.398C426.172 219.284 426.352 219.202 426.542 219.157C426.732 219.113 426.929 219.106 427.121 219.137C427.314 219.168 427.499 219.237 427.665 219.34C427.831 219.443 427.975 219.577 428.089 219.736C433.59 227.382 443.516 226.722 445.446 226.514C445.84 226.471 446.234 226.587 446.543 226.836C446.851 227.084 447.048 227.445 447.091 227.839C447.133 228.233 447.017 228.627 446.768 228.935C446.52 229.244 446.159 229.441 445.765 229.483C444.939 229.564 444.109 229.601 443.278 229.595V229.595Z" fill="#BB8A52"/>
<path d="M364.762 187.924C364.567 187.924 364.375 187.873 364.205 187.775C364.036 187.677 363.895 187.536 363.797 187.367C356.203 174.197 345.238 172.2 341.088 173.262C340.946 173.299 340.799 173.309 340.654 173.289C340.509 173.27 340.369 173.222 340.243 173.148C340.116 173.075 340.005 172.977 339.917 172.861C339.828 172.745 339.763 172.612 339.725 172.471C339.688 172.33 339.678 172.182 339.698 172.037C339.717 171.892 339.765 171.753 339.838 171.626C339.912 171.5 340.009 171.389 340.126 171.3C340.242 171.211 340.375 171.146 340.516 171.109C346.047 169.624 357.784 172.438 365.757 186.216C365.855 186.386 365.907 186.578 365.906 186.773C365.906 186.969 365.855 187.161 365.757 187.33C365.659 187.5 365.519 187.64 365.349 187.738C365.18 187.836 364.988 187.887 364.792 187.887L364.762 187.924Z" fill="#BB8A52"/>
<path d="M352.906 188.437C351.685 188.495 350.469 188.247 349.369 187.714C348.27 187.181 347.321 186.38 346.611 185.385C345.75 184.09 345.305 182.563 345.336 181.008C345.366 179.454 345.871 177.945 346.781 176.685C348.608 174.264 351.651 173.537 355.126 174.702C355.405 174.801 355.635 175.006 355.763 175.274C355.891 175.541 355.907 175.848 355.809 176.128C355.71 176.407 355.505 176.636 355.238 176.765C354.97 176.893 354.663 176.909 354.383 176.811C351.845 175.957 349.758 176.388 348.526 178.021C347.898 178.91 347.551 179.967 347.531 181.055C347.511 182.143 347.819 183.212 348.415 184.123C349.803 186.15 352.453 186.722 355.883 185.742C356.16 185.681 356.45 185.728 356.694 185.873C356.937 186.019 357.116 186.252 357.193 186.524C357.271 186.797 357.242 187.089 357.111 187.341C356.981 187.593 356.759 187.786 356.492 187.88C355.328 188.23 354.121 188.417 352.906 188.437V188.437Z" fill="#BB8A52"/>
<path d="M333.782 236.551C332.728 240.33 331.555 244.205 330.323 248.132C314.391 245.579 316.997 237.486 333.782 236.551Z" fill="url(#paint18_linear_1119_43050)"/>
<path d="M237.999 586.648C214.807 610.063 189.165 627.68 176.677 615.193C164.19 602.706 177.568 569.261 197.412 546.292C217.257 523.322 239.558 518.415 247.583 523.768L237.999 586.648Z" fill="url(#paint19_linear_1119_43050)"/>
<path d="M271.325 540.91C266.128 537.198 261.287 533.672 257.323 530.813C261.57 524.911 257.004 515.773 249.157 504.748C269.008 453.523 281.867 426.21 284.161 401.192C285.054 391.827 285.054 382.398 284.161 373.033C286.388 375.505 290.597 383.968 291.391 401.986C292.104 417.918 273.693 496.767 271.325 540.91Z" fill="url(#paint20_linear_1119_43050)"/>
<path d="M410.457 631.489C407.717 636.589 402.921 637.279 388.987 629.521C394.421 639.031 384.822 649.425 375.876 643.486C378.103 649.521 371.013 658.92 359.091 651.89C359.091 651.89 357.546 656.7 346.076 653.649C334.606 650.598 298.934 629.276 292.572 624.881C286.21 620.486 252.832 602.654 244.695 597.725C242.914 596.641 238.756 594.302 233.277 591.303C223.626 585.972 209.929 578.563 198.645 572.439C192.988 569.365 187.925 566.611 184.272 564.606C188.108 558.127 192.507 551.998 197.42 546.292C215.319 525.579 235.207 519.565 244.829 522.535C245.807 522.821 246.737 523.248 247.591 523.805C247.591 523.805 308.467 567.969 311.073 569.024C313.678 570.078 350.612 567.042 355.98 566.574C361.347 566.106 366.24 569.722 373.797 575.089C381.355 580.457 396.633 584.874 396.633 584.874L380.984 597.138C380.984 597.138 398.118 611.912 405 617.858C411.882 623.805 412.736 627.257 410.457 631.489Z" fill="#F2BA70"/>
<path d="M426.418 568.735C413.129 585.884 401.177 601.356 395.044 609.285L380.939 597.139C380.939 597.139 378.912 595.654 375.067 592.38C378.229 589.003 381.852 585.194 385.794 581.081C393.478 573.041 402.394 563.828 411.563 554.355C409.105 559.99 421.169 571.482 426.418 568.735Z" fill="url(#paint21_linear_1119_43050)"/>
<path d="M380.984 598.252C380.743 598.252 380.508 598.174 380.315 598.029C380.271 598.029 375.72 594.555 367.509 587.272C367.289 587.075 367.155 586.799 367.139 586.503C367.122 586.208 367.223 585.919 367.42 585.698C367.617 585.478 367.893 585.344 368.189 585.327C368.484 585.311 368.773 585.412 368.994 585.609C377.16 592.825 381.615 596.218 381.659 596.247C381.846 596.388 381.984 596.583 382.054 596.806C382.124 597.029 382.121 597.269 382.048 597.49C381.974 597.712 381.832 597.905 381.642 598.042C381.453 598.178 381.225 598.252 380.991 598.252H380.984Z" fill="#BB8A52"/>
<path d="M388.987 630.635C388.755 630.635 388.529 630.563 388.341 630.427C377.554 622.781 363.515 612.061 363.374 611.957C363.25 611.871 363.144 611.761 363.063 611.634C362.983 611.506 362.929 611.363 362.905 611.214C362.881 611.065 362.888 610.913 362.925 610.766C362.962 610.62 363.028 610.482 363.12 610.362C363.212 610.242 363.327 610.142 363.459 610.068C363.59 609.994 363.735 609.948 363.886 609.932C364.036 609.916 364.188 609.93 364.332 609.974C364.476 610.019 364.61 610.092 364.725 610.19C364.866 610.294 378.868 620.992 389.625 628.616C389.817 628.753 389.96 628.947 390.034 629.171C390.108 629.395 390.11 629.636 390.038 629.861C389.966 630.085 389.825 630.281 389.635 630.421C389.444 630.56 389.215 630.635 388.979 630.635H388.987Z" fill="#BB8A52"/>
<path d="M375.877 644.6C375.672 644.6 375.472 644.543 375.298 644.436C375.179 644.369 363.649 637.339 355.253 631.214C355.129 631.13 355.024 631.022 354.943 630.897C354.862 630.771 354.807 630.63 354.782 630.483C354.756 630.336 354.761 630.185 354.795 630.039C354.829 629.894 354.892 629.757 354.98 629.636C355.068 629.515 355.18 629.414 355.308 629.337C355.437 629.26 355.579 629.21 355.727 629.19C355.875 629.17 356.026 629.179 356.17 629.219C356.315 629.258 356.449 629.325 356.567 629.418C364.86 635.483 376.315 642.461 376.426 642.536C376.633 642.662 376.793 642.853 376.882 643.079C376.971 643.305 376.983 643.553 376.918 643.787C376.852 644.02 376.712 644.226 376.519 644.373C376.325 644.52 376.09 644.599 375.847 644.6H375.877Z" fill="#BB8A52"/>
<path d="M359.091 652.996C358.903 652.995 358.72 652.947 358.556 652.855C353.738 650.205 347.509 645.751 347.242 645.565C347.002 645.393 346.84 645.132 346.792 644.84C346.744 644.549 346.814 644.25 346.986 644.01C347.158 643.769 347.419 643.608 347.711 643.559C348.002 643.511 348.301 643.581 348.541 643.754C348.608 643.798 354.933 648.319 359.633 650.903C359.847 651.023 360.016 651.21 360.113 651.436C360.21 651.662 360.23 651.914 360.169 652.152C360.108 652.39 359.97 652.601 359.776 652.753C359.582 652.904 359.344 652.987 359.098 652.989L359.091 652.996Z" fill="#BB8A52"/>
<path d="M244.829 522.498C224.079 528.111 205.623 553.033 198.645 572.439C192.988 569.366 187.925 566.611 184.272 564.607C188.108 558.127 192.507 551.998 197.42 546.292C215.319 525.579 235.207 519.551 244.829 522.498Z" fill="#D39E5F"/>
<path d="M652.463 640.479C649.293 645.424 643.272 653.375 637.214 653.62C634.776 653.795 632.338 653.284 630.176 652.145C628.014 651.006 626.214 649.285 624.979 647.176C615.677 654.065 610.495 644.243 610.495 644.243C602.611 647.792 599.099 640.836 599.099 640.836C594.845 642.187 590.087 640.888 588.461 637.257C586.122 632.061 585.098 623.018 587.021 617.369C589.745 609.343 598.476 609.425 599.099 618.742C601.854 612.484 609.872 612.706 610.978 620.969C616.872 611.964 626.672 614.763 626.568 623.404C634.081 613.36 642.618 621.43 638.335 629.047C638.038 629.58 637.816 630.152 637.674 630.747C637.462 631.082 637.309 631.451 637.221 631.838C636.916 633.714 636.916 635.626 637.221 637.502C637.221 637.502 645.551 639.18 652.463 640.479Z" fill="#F2BA70"/>
<path d="M618.594 650.739C617.945 650.739 617.297 650.667 616.664 650.523C613.227 649.736 611.007 647.042 610.049 645.631C603.576 648.044 599.871 643.946 598.602 642.134C593.828 643.293 589.136 641.481 587.466 637.68C585.135 632.483 583.902 623.085 585.981 616.975C586.079 616.695 586.285 616.466 586.552 616.338C586.819 616.21 587.127 616.193 587.406 616.292C587.686 616.39 587.915 616.596 588.043 616.863C588.171 617.13 588.188 617.438 588.089 617.717C586.248 623.144 587.347 631.964 589.492 636.797C590.792 639.699 594.867 641.006 598.78 639.766C599.031 639.686 599.303 639.699 599.546 639.801C599.79 639.903 599.989 640.088 600.109 640.323C600.235 640.561 603.264 646.262 610.049 643.211C610.308 643.095 610.6 643.082 610.868 643.175C611.135 643.267 611.358 643.458 611.489 643.708C611.489 643.708 613.561 647.524 617.184 648.341C619.411 648.838 621.794 648.14 624.333 646.262C624.57 646.086 624.868 646.011 625.16 646.054C625.452 646.097 625.716 646.255 625.892 646.492C626.068 646.73 626.143 647.027 626.1 647.319C626.057 647.612 625.899 647.875 625.662 648.051C623.242 649.848 620.881 650.739 618.594 650.739Z" fill="#BB8A52"/>
<path d="M626.552 624.532C626.406 624.531 626.262 624.5 626.127 624.442C625.993 624.384 625.871 624.301 625.769 624.196C625.667 624.091 625.587 623.967 625.533 623.831C625.479 623.695 625.452 623.55 625.454 623.404C625.491 620.123 623.902 617.591 621.304 616.797C618.134 615.832 614.451 617.71 611.912 621.593C611.788 621.782 611.609 621.929 611.398 622.014C611.188 622.099 610.957 622.118 610.736 622.067C610.515 622.017 610.314 621.901 610.161 621.734C610.008 621.567 609.909 621.357 609.878 621.132C609.455 617.94 607.859 615.846 605.602 615.527C603.345 615.208 601.229 616.693 600.131 619.187C600.012 619.458 599.79 619.67 599.514 619.777C599.238 619.885 598.931 619.878 598.661 619.759C598.39 619.64 598.178 619.418 598.07 619.142C597.963 618.867 597.97 618.56 598.089 618.289C599.574 614.866 602.736 612.862 605.906 613.315C608 613.612 610.361 615.126 611.519 618.43C614.489 615.052 618.423 613.59 621.912 614.666C625.402 615.743 627.696 619.12 627.636 623.426C627.634 623.715 627.52 623.992 627.318 624.199C627.116 624.405 626.841 624.525 626.552 624.532V624.532Z" fill="#BB8A52"/>
<path d="M599.099 641.949C598.907 641.951 598.718 641.902 598.55 641.808C598.382 641.715 598.241 641.579 598.141 641.415C594.845 635.951 594.823 624.689 598.104 618.237C598.166 618.1 598.255 617.976 598.366 617.874C598.477 617.772 598.608 617.694 598.75 617.643C598.892 617.593 599.043 617.573 599.194 617.583C599.344 617.592 599.491 617.633 599.626 617.701C599.76 617.77 599.879 617.865 599.976 617.981C600.072 618.097 600.144 618.231 600.187 618.375C600.23 618.52 600.244 618.672 600.226 618.822C600.209 618.971 600.161 619.116 600.087 619.247C597.206 624.919 597.184 635.52 600.049 640.264C600.152 640.433 600.208 640.626 600.212 640.824C600.215 641.021 600.166 641.216 600.069 641.388C599.973 641.561 599.832 641.704 599.661 641.804C599.491 641.904 599.297 641.957 599.099 641.957V641.949Z" fill="#BB8A52"/>
<path d="M610.495 645.35C610.33 645.35 610.167 645.313 610.018 645.242C609.869 645.172 609.738 645.069 609.633 644.941C605.921 640.361 606.122 626.382 610.034 620.376C610.2 620.139 610.452 619.977 610.735 619.922C611.019 619.868 611.313 619.926 611.554 620.084C611.796 620.242 611.967 620.487 612.031 620.769C612.095 621.051 612.047 621.346 611.898 621.593C608.267 627.131 608.438 639.967 611.356 643.531C611.489 643.694 611.574 643.892 611.599 644.101C611.625 644.31 611.591 644.522 611.5 644.713C611.41 644.903 611.268 645.064 611.09 645.177C610.912 645.29 610.705 645.35 610.495 645.35V645.35Z" fill="#BB8A52"/>
<path d="M624.979 648.289C624.795 648.289 624.613 648.242 624.451 648.154C624.289 648.066 624.152 647.939 624.051 647.785C620.963 643.078 621.267 629.099 625.64 622.788C625.723 622.668 625.829 622.565 625.953 622.486C626.076 622.406 626.213 622.352 626.357 622.326C626.501 622.3 626.649 622.302 626.792 622.333C626.935 622.364 627.071 622.423 627.191 622.506C627.312 622.589 627.415 622.696 627.494 622.819C627.573 622.942 627.628 623.079 627.654 623.223C627.68 623.368 627.678 623.515 627.647 623.659C627.616 623.802 627.557 623.937 627.474 624.058C623.673 629.551 623.287 642.551 625.915 646.567C626.024 646.735 626.086 646.929 626.095 647.129C626.103 647.329 626.057 647.528 625.962 647.704C625.867 647.88 625.727 648.028 625.555 648.131C625.383 648.234 625.187 648.289 624.987 648.289H624.979Z" fill="#BB8A52"/>
<path d="M584.815 554.406C565.513 560.405 556.233 579.93 549.796 598.505L535.906 592.06C539.558 586.263 543.661 580.762 548.178 575.609C561.385 560.709 577.154 551.838 584.815 554.406Z" fill="#D39E5F"/>
<path d="M622.818 574.125C611.162 576.545 600.39 579.878 600.717 575.609C600.917 572.929 605.097 570.502 610.368 568.839L617.48 572.9C617.97 573.197 620.034 573.642 622.818 574.125Z" fill="#D39E5F"/>
<path d="M580.279 223.433C582.001 223.433 583.397 222.037 583.397 220.315C583.397 218.593 582.001 217.197 580.279 217.197C578.557 217.197 577.161 218.593 577.161 220.315C577.161 222.037 578.557 223.433 580.279 223.433Z" fill="url(#paint22_linear_1119_43050)"/>
<path d="M627.384 223.433C629.106 223.433 630.502 222.037 630.502 220.315C630.502 218.593 629.106 217.197 627.384 217.197C625.662 217.197 624.266 218.593 624.266 220.315C624.266 222.037 625.662 223.433 627.384 223.433Z" fill="url(#paint23_linear_1119_43050)"/>
<path d="M674.489 223.433C676.211 223.433 677.607 222.037 677.607 220.315C677.607 218.593 676.211 217.197 674.489 217.197C672.767 217.197 671.371 218.593 671.371 220.315C671.371 222.037 672.767 223.433 674.489 223.433Z" fill="url(#paint24_linear_1119_43050)"/>
<path d="M721.594 223.433C723.316 223.433 724.712 222.037 724.712 220.315C724.712 218.593 723.316 217.197 721.594 217.197C719.872 217.197 718.476 218.593 718.476 220.315C718.476 222.037 719.872 223.433 721.594 223.433Z" fill="url(#paint25_linear_1119_43050)"/>
<path d="M768.698 223.433C770.42 223.433 771.816 222.037 771.816 220.315C771.816 218.593 770.42 217.197 768.698 217.197C766.976 217.197 765.58 218.593 765.58 220.315C765.58 222.037 766.976 223.433 768.698 223.433Z" fill="url(#paint26_linear_1119_43050)"/>
<path d="M905.038 378.824C896.3 380.16 892.165 370.078 893.509 369.12C894.853 368.163 898.706 369.796 897.637 367.584C896.568 365.371 893.509 357.116 896.293 356.448C899.077 355.78 900.421 363.174 901.386 362.112C902.351 361.051 906.093 359.232 906.583 363.746C907.073 368.259 909.077 367.205 910.295 366.24C911.512 365.275 913.205 377.576 905.038 378.824Z" fill="url(#paint27_linear_1119_43050)"/>
<path d="M943.034 511.949C947.786 517.687 957.325 514.77 956.887 512.387C956.449 510.004 957.63 510.449 960.124 510.085C962.619 509.721 965.789 507.858 964.579 506.336C963.368 504.814 960.161 506.485 960.971 505.378C961.78 504.272 967.474 502.409 966.91 500.375C966.397 498.459 958.595 501.919 958.521 500.813C958.446 499.707 959.07 496.017 957.199 495.616C954.118 494.874 950.874 502.602 950.213 502.015C949.553 501.429 949.775 498.43 948.55 498.303C945.365 497.888 940.436 508.831 943.034 511.949Z" fill="url(#paint28_linear_1119_43050)"/>
<path d="M807.696 576.002C800.332 562.12 796.033 547.049 795.625 531.867C795.217 516.685 792.18 515.735 784.705 515.661C781.148 515.661 783.287 484.384 770.213 487.361C761.304 489.395 755.892 512.342 766.627 535.408C766.627 535.408 760.896 532.624 760.443 537.376C759.99 542.127 764.155 552.172 785.165 569.774C799.909 582.134 816.123 582.988 816.123 582.988L807.696 576.002Z" fill="url(#paint29_linear_1119_43050)"/>
<path d="M927.385 473.196C928.825 474.421 926.138 484.695 930.718 483.114C935.299 481.533 944.824 475.111 942.307 473.196C939.79 471.28 935.551 469.781 936.219 468.942C936.887 468.103 942.218 465.022 938.966 461.689C935.714 458.355 928.298 458.853 923.547 462.431C918.795 466.009 916.999 472.305 918.795 475.185C922.129 480.494 926.353 472.29 927.385 473.196Z" fill="url(#paint30_linear_1119_43050)"/>
<path d="M925.559 423.263C926.131 421.102 926.301 419.365 925.559 418.912C923.332 417.479 921.364 419.892 919.457 433.834L921.246 434.577L921.572 433.834L922.745 434.844C922.745 434.844 931.929 428.059 932.01 423.567C932.092 419.076 927.912 418.808 925.559 423.263Z" fill="url(#paint31_linear_1119_43050)"/>
<path d="M922.047 430.345C925.663 432.505 923.361 438.088 919.471 442.966C915.581 447.843 899.612 463.485 882.693 454.398C865.774 445.311 867.029 429.023 872.04 417.115C877.051 405.207 884.171 403.485 888.707 406.158C895.767 410.308 890.711 430.538 897.883 433.322C914.549 439.788 918.477 428.207 922.047 430.345Z" fill="url(#paint32_linear_1119_43050)"/>
<path d="M915.811 447.955C915.615 447.956 915.423 447.904 915.254 447.807C908.572 443.954 909.396 436.025 910.22 434.347C910.28 434.209 910.367 434.084 910.477 433.98C910.586 433.876 910.716 433.796 910.857 433.744C910.999 433.691 911.149 433.669 911.3 433.676C911.451 433.684 911.598 433.722 911.733 433.789C911.869 433.855 911.989 433.948 912.088 434.063C912.186 434.177 912.26 434.31 912.305 434.454C912.35 434.598 912.366 434.75 912.351 434.9C912.336 435.05 912.29 435.195 912.217 435.327C911.898 435.981 910.673 442.61 916.36 445.877C916.573 445.999 916.739 446.188 916.833 446.415C916.927 446.642 916.944 446.893 916.88 447.13C916.817 447.367 916.677 447.576 916.482 447.726C916.287 447.875 916.049 447.956 915.803 447.955H915.811Z" fill="#ECB88B"/>
<path d="M904.244 455.831C904.036 455.83 903.833 455.771 903.658 455.66C901.88 454.553 900.435 452.985 899.477 451.122C898.518 449.259 898.083 447.172 898.216 445.081C898.311 442.814 899.01 440.613 900.241 438.706C901.471 436.799 903.189 435.255 905.217 434.235C905.481 434.104 905.787 434.084 906.067 434.178C906.347 434.273 906.578 434.475 906.709 434.74C906.84 435.005 906.86 435.311 906.765 435.59C906.671 435.87 906.469 436.101 906.204 436.232C904.534 437.076 903.119 438.351 902.106 439.925C901.093 441.499 900.519 443.315 900.443 445.185C900.319 446.881 900.663 448.578 901.438 450.092C902.213 451.605 903.389 452.877 904.838 453.767C905.042 453.896 905.199 454.087 905.285 454.312C905.372 454.537 905.382 454.784 905.316 455.016C905.25 455.247 905.111 455.452 904.919 455.597C904.727 455.743 904.492 455.822 904.251 455.824L904.244 455.831Z" fill="#ECB88B"/>
<path d="M890.904 458.118C890.631 458.121 890.367 458.024 890.161 457.844C887.095 455.164 885.826 450.138 886.932 445.045C887.511 442.124 888.873 439.415 890.873 437.207C892.872 435 895.433 433.378 898.283 432.513C898.561 432.445 898.853 432.486 899.101 432.628C899.349 432.77 899.533 433.002 899.615 433.275C899.697 433.549 899.67 433.843 899.541 434.098C899.412 434.353 899.191 434.548 898.922 434.644C896.455 435.397 894.239 436.805 892.51 438.72C890.782 440.634 889.605 442.982 889.107 445.512C888.172 449.826 889.159 454.005 891.624 456.158C891.795 456.308 891.917 456.506 891.972 456.727C892.027 456.948 892.013 457.18 891.933 457.393C891.852 457.606 891.708 457.789 891.52 457.917C891.332 458.045 891.109 458.113 890.882 458.111L890.904 458.118Z" fill="#ECB88B"/>
<path d="M871.706 445.171C871.617 445.181 871.527 445.181 871.438 445.171C871.152 445.101 870.905 444.92 870.752 444.668C870.599 444.416 870.552 444.114 870.622 443.827C873.71 431.147 882.21 425.267 894.549 427.198C894.844 427.244 895.109 427.406 895.285 427.647C895.461 427.889 895.534 428.19 895.488 428.486C895.442 428.781 895.28 429.046 895.039 429.222C894.797 429.398 894.495 429.471 894.2 429.425C883.012 427.65 875.603 432.818 872.782 444.384C872.711 444.614 872.569 444.815 872.375 444.956C872.181 445.098 871.946 445.174 871.706 445.171Z" fill="#ECB88B"/>
<path d="M870.421 422.714C870.22 422.714 870.022 422.659 869.849 422.556C869.676 422.452 869.535 422.304 869.439 422.126C869.344 421.949 869.299 421.749 869.308 421.548C869.318 421.346 869.382 421.152 869.493 420.984C872.975 415.787 877.155 412.817 881.587 412.327C885.722 411.889 889.983 413.679 893.91 417.524C894.021 417.625 894.11 417.746 894.172 417.882C894.235 418.018 894.269 418.164 894.273 418.314C894.278 418.463 894.252 418.611 894.198 418.751C894.144 418.89 894.063 419.017 893.959 419.124C893.855 419.231 893.73 419.316 893.593 419.374C893.455 419.432 893.307 419.461 893.158 419.461C893.009 419.461 892.861 419.43 892.724 419.372C892.587 419.313 892.462 419.228 892.359 419.12C888.922 415.78 885.291 414.213 881.817 414.57C878.068 414.963 874.445 417.621 871.342 422.246C871.237 422.392 871.099 422.511 870.939 422.593C870.779 422.674 870.601 422.716 870.421 422.714V422.714Z" fill="#ECB88B"/>
<path d="M890.941 584.934C894.497 587.644 902.723 581.831 900.859 579.663C898.996 577.495 895.314 569.952 901.134 563.545C906.954 557.139 920.704 558.067 921.424 562.098C922.144 566.129 920.392 567.176 916.227 572.232C912.062 577.287 916.123 584.481 920.05 586.411C923.977 588.341 932.448 591.237 940.303 576.664C948.157 562.09 947.125 539.151 930.384 531.608C913.643 524.065 892.292 539.975 887.006 554.035C881.72 568.096 886.182 581.318 890.941 584.934Z" fill="url(#paint33_linear_1119_43050)"/>
<path d="M939.538 579.195C939.32 579.195 939.106 579.131 938.924 579.011C938.742 578.891 938.599 578.72 938.513 578.519C937.834 576.93 936.834 575.497 935.575 574.312C934.317 573.127 932.828 572.213 931.201 571.63C926.747 570.039 921.847 570.26 917.556 572.246C917.291 572.357 916.994 572.361 916.726 572.259C916.458 572.156 916.24 571.954 916.118 571.695C915.995 571.435 915.978 571.139 916.068 570.867C916.159 570.594 916.352 570.368 916.605 570.234C921.447 567.998 926.974 567.752 931.995 569.551C933.904 570.238 935.651 571.311 937.126 572.703C938.601 574.096 939.774 575.777 940.57 577.643C940.642 577.813 940.671 577.997 940.655 578.181C940.638 578.364 940.577 578.541 940.475 578.695C940.374 578.849 940.235 578.975 940.073 579.062C939.911 579.149 939.729 579.195 939.545 579.195H939.538Z" fill="#ECB88B"/>
<path d="M920.31 561.638C920.108 561.638 919.911 561.583 919.738 561.48C919.565 561.376 919.423 561.228 919.328 561.05C919.233 560.873 919.188 560.673 919.197 560.472C919.206 560.27 919.27 560.076 919.382 559.908C924.341 552.395 933.242 549.871 945.135 552.617C945.284 552.643 945.426 552.7 945.553 552.782C945.679 552.865 945.788 552.973 945.871 553.098C945.955 553.224 946.012 553.366 946.039 553.515C946.066 553.663 946.063 553.816 946.029 553.963C945.995 554.111 945.932 554.25 945.843 554.372C945.753 554.494 945.64 554.596 945.51 554.673C945.38 554.75 945.235 554.8 945.086 554.819C944.936 554.838 944.783 554.827 944.638 554.785C937.036 553.033 926.821 552.707 921.245 561.133C921.144 561.288 921.005 561.416 920.842 561.504C920.678 561.592 920.495 561.638 920.31 561.638Z" fill="#ECB88B"/>
<path d="M913.621 560.02C913.344 560.019 913.077 559.915 912.873 559.728C912.668 559.542 912.541 559.286 912.515 559.01C911.386 547.094 921.728 533.442 933.005 531.957C933.3 531.919 933.599 531.999 933.835 532.181C934.071 532.363 934.225 532.631 934.263 532.926C934.302 533.221 934.221 533.52 934.039 533.756C933.858 533.992 933.59 534.146 933.294 534.184C923.265 535.498 913.725 548.164 914.734 558.817C914.761 559.11 914.671 559.402 914.483 559.629C914.295 559.856 914.025 559.999 913.732 560.027L913.621 560.02Z" fill="#ECB88B"/>
<path d="M905.73 561.541C905.563 561.541 905.398 561.504 905.248 561.432C905.098 561.36 904.965 561.255 904.861 561.125C898.566 553.278 898.825 538.274 905.351 532.966C905.58 532.78 905.874 532.693 906.168 532.723C906.462 532.754 906.731 532.9 906.917 533.129C907.104 533.359 907.191 533.653 907.16 533.946C907.13 534.24 906.983 534.51 906.754 534.696C901.149 539.262 901.06 552.825 906.598 559.729C906.73 559.893 906.813 560.091 906.837 560.299C906.861 560.508 906.825 560.719 906.734 560.909C906.644 561.098 906.501 561.258 906.323 561.37C906.146 561.482 905.94 561.541 905.73 561.541Z" fill="#ECB88B"/>
<path d="M900.332 564.132C895.677 564.132 888.869 560.925 886.018 554.481C885.955 554.347 885.919 554.201 885.913 554.053C885.907 553.905 885.93 553.757 885.982 553.619C886.034 553.48 886.112 553.352 886.214 553.244C886.315 553.136 886.437 553.05 886.573 552.989C886.708 552.929 886.854 552.896 887.002 552.893C887.151 552.89 887.298 552.917 887.436 552.971C887.573 553.026 887.699 553.107 887.805 553.211C887.911 553.315 887.995 553.439 888.052 553.575C890.784 559.737 897.874 562.551 901.564 561.786C901.707 561.756 901.855 561.755 901.999 561.783C902.143 561.81 902.28 561.865 902.402 561.946C902.524 562.026 902.63 562.13 902.712 562.251C902.794 562.372 902.852 562.508 902.882 562.651C902.911 562.794 902.913 562.942 902.885 563.086C902.858 563.23 902.802 563.367 902.722 563.489C902.642 563.611 902.538 563.717 902.417 563.799C902.296 563.881 902.16 563.939 902.017 563.969C901.462 564.081 900.897 564.135 900.332 564.132V564.132Z" fill="#ECB88B"/>
<path d="M893.035 575.334C892.337 575.334 891.642 575.255 890.963 575.097C888.046 574.421 885.544 572.402 883.71 569.262C883.63 569.135 883.576 568.994 883.552 568.846C883.528 568.699 883.534 568.548 883.569 568.402C883.605 568.257 883.669 568.12 883.759 568C883.848 567.88 883.961 567.78 884.09 567.704C884.22 567.629 884.363 567.58 884.511 567.562C884.66 567.543 884.81 567.554 884.954 567.595C885.098 567.635 885.233 567.705 885.349 567.799C885.466 567.892 885.562 568.009 885.633 568.141C887.118 570.739 889.159 572.395 891.461 572.929C892.481 573.15 893.536 573.156 894.558 572.946C895.581 572.736 896.549 572.316 897.4 571.712C897.522 571.631 897.658 571.575 897.802 571.546C897.945 571.518 898.093 571.519 898.236 571.548C898.38 571.577 898.516 571.634 898.638 571.715C898.759 571.797 898.863 571.902 898.944 572.023C899.025 572.145 899.081 572.282 899.109 572.425C899.137 572.569 899.137 572.717 899.108 572.86C899.079 573.003 899.022 573.14 898.94 573.261C898.859 573.383 898.754 573.487 898.632 573.568C896.981 574.695 895.034 575.309 893.035 575.334V575.334Z" fill="#ECB88B"/>
<path d="M638.416 642.269C638.206 642.269 638.001 642.209 637.824 642.098C637.646 641.986 637.504 641.827 637.413 641.638C635.557 637.792 635.253 632.484 636.745 630.042C636.818 629.911 636.917 629.796 637.035 629.705C637.154 629.613 637.289 629.546 637.434 629.508C637.579 629.47 637.73 629.461 637.878 629.483C638.027 629.505 638.169 629.556 638.297 629.634C638.425 629.712 638.536 629.815 638.623 629.937C638.71 630.059 638.772 630.197 638.804 630.343C638.837 630.489 638.84 630.64 638.812 630.788C638.785 630.935 638.728 631.075 638.646 631.2C637.785 632.618 637.651 637.013 639.388 640.673C639.47 640.843 639.507 641.03 639.496 641.218C639.486 641.406 639.428 641.588 639.328 641.748C639.228 641.907 639.089 642.038 638.924 642.13C638.759 642.221 638.574 642.269 638.386 642.269H638.416Z" fill="#BB8A52"/>
<path d="M743.784 657.31L698.453 648.854C689.908 641.059 690.012 629.507 711.141 623.063C725.543 625.609 735.179 627.332 735.179 627.332L743.784 657.31Z" fill="url(#paint34_linear_1119_43050)"/>
<path d="M731.148 616.418C731.022 635.676 732.633 655.943 750.94 673.917C769.247 691.89 798.884 703.701 835.365 711.459C871.846 719.217 923.494 711.638 937.236 704.236C950.978 696.834 964.875 669.039 965.447 657.295L731.148 616.418Z" fill="url(#paint35_linear_1119_43050)"/>
<path d="M965.425 657.31C964.957 661.883 957.088 667.622 943.799 672.247C921.305 680.079 883.264 684.741 839.211 675.216C796.783 666.011 765.276 651.207 747.525 638.059C735.966 629.485 730.243 621.623 731.148 616.463C736.427 586.456 826.969 595.454 877.593 609.596C928.216 623.739 966.695 644.986 965.425 657.31Z" fill="url(#paint36_linear_1119_43050)"/>
<path d="M943.799 672.231C921.304 680.063 883.264 684.726 839.21 675.201C796.783 665.995 765.276 651.192 747.525 638.044C759.069 625.884 800.836 622.001 848.921 629.64C900.436 637.792 940.948 656.299 943.799 672.231Z" fill="url(#paint37_linear_1119_43050)"/>
<path d="M835.64 652.914C857.912 648.995 872.612 639.262 883.992 633.872C895.373 628.482 906.784 626.834 904.223 636.418C908.989 630.479 927.326 627.985 927.578 634.704C928.061 647.465 909.1 652.009 909.108 652.031C909.115 652.053 919.961 651.675 918.759 655.884C916.598 663.308 867.801 668.779 827.623 651.378L835.64 652.914Z" fill="url(#paint38_linear_1119_43050)"/>
<path d="M257.005 532.321C256.793 532.32 256.586 532.26 256.408 532.146C256.23 532.032 256.087 531.87 255.998 531.679C255.908 531.487 255.875 531.274 255.902 531.064C255.929 530.854 256.016 530.657 256.151 530.494C256.24 530.39 256.322 530.272 256.403 530.16C259.744 525.52 257.294 518.111 248.237 505.394L248.185 505.312C245.639 501.749 242.736 497.985 239.982 494.444C239.8 494.21 239.719 493.915 239.756 493.622C239.793 493.329 239.945 493.062 240.178 492.881C240.412 492.7 240.707 492.619 241 492.656C241.293 492.693 241.56 492.844 241.741 493.078C244.532 496.663 247.472 500.502 250.056 504.095L250.108 504.176C257.302 514.251 263.241 524.518 258.274 531.467C258.163 531.623 258.051 531.771 257.933 531.92C257.821 532.055 257.678 532.162 257.517 532.232C257.355 532.301 257.18 532.332 257.005 532.321V532.321Z" fill="#C5E0E2"/>
<path d="M249.128 505.862C248.834 505.862 248.552 505.746 248.343 505.538C248.134 505.331 248.016 505.05 248.014 504.756C248.014 504.616 248.039 504.478 248.088 504.347C252.194 493.753 256.062 484.021 259.477 475.439C272.595 442.514 281.214 420.769 282.988 401.081C283.887 391.788 283.899 382.432 283.025 373.137C281.912 362.001 279.811 356.374 279.402 355.357C279.291 355.083 279.293 354.776 279.408 354.504C279.523 354.232 279.741 354.016 280.015 353.905C280.289 353.794 280.595 353.796 280.868 353.911C281.14 354.026 281.355 354.244 281.466 354.518C282.714 357.584 284.354 364.028 285.238 372.914C286.138 382.351 286.138 391.852 285.238 401.288C283.404 421.296 274.711 443.159 261.548 476.27C258.14 484.845 254.273 494.555 250.175 505.134C250.095 505.348 249.953 505.533 249.766 505.663C249.578 505.793 249.356 505.862 249.128 505.862V505.862Z" fill="#C5E0E2"/>
<path d="M661.608 627.488C659.173 627.488 654.785 626.285 651.504 618.653C650.672 616.716 649.871 614.756 649.121 612.818C647.718 609.232 646.723 606.344 646.263 604.978C644.778 605.142 641.415 605.483 636.998 605.817C636.851 605.828 636.704 605.81 636.565 605.764C636.426 605.718 636.297 605.645 636.186 605.549C636.075 605.453 635.984 605.336 635.918 605.205C635.852 605.074 635.813 604.932 635.802 604.785C635.792 604.639 635.81 604.492 635.856 604.353C635.902 604.214 635.975 604.085 636.071 603.974C636.167 603.863 636.283 603.772 636.414 603.706C636.545 603.64 636.688 603.601 636.834 603.59C642.885 603.137 646.864 602.662 646.908 602.662C647.163 602.631 647.42 602.687 647.637 602.822C647.855 602.957 648.019 603.163 648.104 603.404C648.104 603.404 649.269 607.027 651.207 611.986C651.949 613.902 652.744 615.839 653.56 617.747C655.788 622.944 658.943 625.632 662.246 625.171C664.667 624.852 666.411 622.944 666.649 621.304C666.822 619.375 666.709 617.431 666.315 615.535C665.315 610.565 664.061 605.648 662.558 600.806C661.623 597.584 660.665 594.251 659.893 591.155C657.443 581.37 652.387 579.744 646.025 578.623L644.295 578.341C644.149 578.319 644.009 578.268 643.882 578.191C643.756 578.115 643.645 578.014 643.558 577.894C643.47 577.775 643.407 577.64 643.372 577.496C643.337 577.352 643.33 577.203 643.352 577.057C643.375 576.911 643.426 576.77 643.503 576.644C643.579 576.517 643.68 576.407 643.799 576.32C643.919 576.232 644.054 576.169 644.198 576.133C644.341 576.098 644.491 576.092 644.637 576.114L646.411 576.411C653.33 577.621 659.284 579.529 662.053 590.591C662.796 593.62 663.768 596.931 664.696 600.138C666.225 605.06 667.498 610.058 668.512 615.112C668.954 617.235 669.072 619.413 668.861 621.571C668.445 624.436 665.736 626.909 662.551 627.332C662.24 627.405 661.925 627.457 661.608 627.488V627.488Z" fill="#BB8A52"/>
<path d="M352.706 655.758C350.367 655.711 348.044 655.361 345.795 654.719C345.509 654.643 345.265 654.457 345.117 654.201C344.969 653.946 344.928 653.642 345.004 653.356C345.08 653.071 345.266 652.827 345.521 652.679C345.777 652.531 346.081 652.49 346.366 652.566C356.366 655.223 358.022 651.578 358.037 651.541C358.088 651.382 358.174 651.237 358.289 651.116C358.405 650.995 358.545 650.902 358.701 650.843C358.858 650.783 359.025 650.76 359.191 650.774C359.358 650.789 359.519 650.84 359.662 650.925C364.659 653.895 369.314 654.05 372.476 651.422C374.763 649.507 375.757 646.337 374.837 643.872C374.755 643.652 374.745 643.41 374.808 643.184C374.872 642.957 375.005 642.756 375.19 642.61C375.375 642.464 375.601 642.38 375.837 642.371C376.072 642.362 376.304 642.427 376.5 642.558C380.576 645.261 384.392 644.043 386.596 641.957C389.262 639.462 390.739 634.822 388.029 630.079C387.957 629.951 387.91 629.811 387.891 629.666C387.873 629.52 387.883 629.373 387.922 629.232C387.961 629.09 388.027 628.958 388.116 628.842C388.206 628.726 388.318 628.629 388.445 628.557C388.572 628.484 388.713 628.437 388.858 628.419C389.003 628.4 389.151 628.411 389.292 628.449C389.433 628.488 389.566 628.554 389.681 628.644C389.797 628.734 389.894 628.845 389.967 628.972C393.285 634.778 391.452 640.494 388.126 643.59C386.726 644.927 384.966 645.825 383.063 646.173C381.159 646.522 379.195 646.305 377.413 645.55C377.436 646.996 377.133 648.428 376.528 649.742C375.923 651.055 375.03 652.215 373.916 653.137C372.135 654.622 367.235 657.525 359.477 653.375C358.579 654.407 356.663 655.758 352.706 655.758Z" fill="#BB8A52"/>
<path d="M404.97 618.973C404.697 618.976 404.433 618.878 404.228 618.698C397.346 612.759 380.211 597.978 380.211 597.978L381.696 596.293C381.696 596.293 398.831 611.067 405.713 617.013C405.884 617.163 406.006 617.361 406.061 617.582C406.116 617.803 406.102 618.035 406.021 618.248C405.94 618.461 405.796 618.643 405.608 618.772C405.42 618.9 405.198 618.968 404.97 618.966V618.973Z" fill="#BB8A52"/>
<path d="M502.915 24.271C495.491 33.0907 467.05 36.1493 434.273 31.0194C400.739 25.7558 374.14 13.6845 370.747 2.80849C371.882 2.36397 373.066 2.05497 374.273 1.88791C408.839 -2.84113 469.299 4.96885 498.639 20.8338C500.26 21.7116 501.709 22.8762 502.915 24.271V24.271Z" fill="url(#paint39_linear_1119_43050)"/>
<path d="M852.314 592.602C845.996 591.162 846.634 588.207 851.571 586.923C856.508 585.639 866.04 586.366 870.68 593.604C875.32 600.843 867.243 604.8 865.164 603.679C863.086 602.558 859.411 597.524 858.691 598.482C857.971 599.44 856.931 610.553 853.494 609.432C850.057 608.311 841.801 605.602 842.061 603.597C842.64 599.314 853.145 592.795 852.314 592.602Z" fill="url(#paint40_linear_1119_43050)"/>
<path d="M848.498 349.157C855.922 350.724 860.844 341.666 857.704 334.888C854.564 328.11 845.967 329.625 842.856 335.497C839.745 341.369 842.752 347.947 848.498 349.157Z" fill="url(#paint41_linear_1119_43050)"/>
<path d="M880.043 483.864C877.868 472.276 859.337 463.434 838.187 476.077C821.52 486.04 818.261 501.444 827.86 512.788C837.459 524.132 857.029 518.111 868.447 511.043C879.865 503.976 882.211 495.468 880.043 483.864ZM865.47 508.089C856.078 513.902 839.968 518.868 832.062 509.521C824.155 500.175 826.865 487.509 840.562 479.306C857.972 468.913 873.228 476.173 875.009 485.72C876.791 495.267 874.868 502.305 865.47 508.089Z" fill="url(#paint42_linear_1119_43050)"/>
<path d="M801.631 600.628C812.901 600.769 813.844 612.41 808.773 616.545C807.552 617.53 806.127 618.229 804.601 618.592C803.075 618.954 801.488 618.972 799.954 618.642C798.421 618.313 796.98 617.645 795.738 616.688C794.496 615.73 793.484 614.507 792.775 613.108C789.59 606.998 794.579 600.547 801.631 600.628Z" fill="url(#paint43_linear_1119_43050)"/>
<path d="M909.568 388.393C909.343 388.394 909.122 388.327 908.937 388.2C904.319 385.03 901.795 377.851 902.017 368.526C902.025 368.236 902.146 367.96 902.354 367.758C902.562 367.556 902.841 367.442 903.131 367.442C903.425 367.45 903.704 367.574 903.907 367.787C904.11 368 904.221 368.284 904.215 368.578C904.015 377.019 906.242 383.664 910.154 386.396C910.351 386.53 910.5 386.724 910.579 386.949C910.658 387.174 910.662 387.418 910.591 387.646C910.521 387.874 910.379 388.073 910.186 388.214C909.994 388.355 909.762 388.431 909.523 388.43L909.568 388.393Z" fill="#51823B"/>
<path d="M938.847 513.516C936.179 513.499 933.532 513.05 931.008 512.187C930.869 512.14 930.74 512.067 930.63 511.971C930.519 511.875 930.428 511.759 930.363 511.628C930.297 511.497 930.258 511.354 930.248 511.208C930.238 511.062 930.256 510.915 930.302 510.776C930.349 510.637 930.422 510.509 930.518 510.398C930.614 510.288 930.731 510.197 930.862 510.131C930.993 510.066 931.135 510.027 931.281 510.017C931.427 510.006 931.574 510.025 931.713 510.071C944.705 514.399 952.426 505.906 953.836 504.132C954.022 503.902 954.292 503.756 954.586 503.726C954.879 503.695 955.173 503.782 955.403 503.968C955.632 504.154 955.778 504.424 955.809 504.718C955.839 505.012 955.752 505.306 955.566 505.535C953.549 508.026 951.001 510.035 948.109 511.415C945.217 512.796 942.052 513.514 938.847 513.516V513.516Z" fill="#51823B"/>
<path d="M825.076 589.581C824.901 589.582 824.728 589.541 824.571 589.462C797.689 575.824 776.717 541.459 772.388 503.946C772.372 503.8 772.384 503.652 772.425 503.51C772.466 503.369 772.534 503.237 772.625 503.122C772.717 503.006 772.831 502.91 772.959 502.839C773.088 502.768 773.23 502.723 773.376 502.706C773.522 502.69 773.67 502.702 773.812 502.743C773.953 502.783 774.085 502.851 774.2 502.943C774.315 503.035 774.411 503.148 774.483 503.277C774.554 503.406 774.599 503.547 774.616 503.693C778.862 540.494 799.345 574.169 825.588 587.48C825.813 587.593 825.992 587.778 826.098 588.006C826.204 588.233 826.229 588.49 826.171 588.734C826.112 588.978 825.973 589.195 825.776 589.35C825.578 589.506 825.334 589.589 825.083 589.588L825.076 589.581Z" fill="#51823B"/>
<path d="M857.094 655.773C841.492 655.77 826.008 653.07 811.326 647.792C811.178 647.752 811.041 647.681 810.922 647.585C810.802 647.489 810.704 647.369 810.634 647.234C810.563 647.098 810.521 646.949 810.51 646.796C810.499 646.644 810.52 646.49 810.571 646.346C810.622 646.202 810.703 646.07 810.807 645.958C810.912 645.846 811.038 645.757 811.179 645.696C811.319 645.635 811.471 645.604 811.624 645.605C811.777 645.605 811.928 645.637 812.068 645.699C828.842 651.693 846.643 654.28 864.429 653.308C881.608 652.269 895.32 647.584 902.039 640.442C902.139 640.336 902.26 640.25 902.393 640.19C902.527 640.129 902.671 640.096 902.818 640.092C902.964 640.087 903.11 640.112 903.247 640.163C903.384 640.215 903.51 640.294 903.617 640.394C903.723 640.495 903.809 640.615 903.869 640.749C903.93 640.882 903.963 641.027 903.967 641.173C903.972 641.319 903.947 641.465 903.896 641.602C903.844 641.74 903.765 641.865 903.665 641.972C895.172 651.022 877.288 655.773 857.094 655.773Z" fill="#51823B"/>
<defs>
<linearGradient id="paint0_linear_1119_43050" x1="674.772" y1="227.716" x2="674.215" y2="213.24" gradientUnits="userSpaceOnUse">
<stop stop-color="#C98348"/>
<stop offset="1" stop-color="#DD9127"/>
</linearGradient>
<linearGradient id="paint1_linear_1119_43050" x1="898.35" y1="582.633" x2="907.273" y2="594.466" gradientUnits="userSpaceOnUse">
<stop stop-color="#F7B381"/>
<stop offset="1" stop-color="#FCD7BA"/>
</linearGradient>
<linearGradient id="paint2_linear_1119_43050" x1="603.857" y1="310.709" x2="654.881" y2="326.114" gradientUnits="userSpaceOnUse">
<stop stop-color="#E8E8EB"/>
<stop offset="1" stop-color="#D3D3D3"/>
</linearGradient>
<linearGradient id="paint3_linear_1119_43050" x1="626.122" y1="298.267" x2="725.284" y2="330.999" gradientUnits="userSpaceOnUse">
<stop stop-color="#E8E8EB"/>
<stop offset="1" stop-color="#D3D3D3"/>
</linearGradient>
<linearGradient id="paint4_linear_1119_43050" x1="732.165" y1="308.623" x2="792.484" y2="320.62" gradientUnits="userSpaceOnUse">
<stop stop-color="#E8E8EB"/>
<stop offset="1" stop-color="#D3D3D3"/>
</linearGradient>
<linearGradient id="paint5_linear_1119_43050" x1="619.804" y1="236.684" x2="647.191" y2="253.774" gradientUnits="userSpaceOnUse">
<stop offset="0.04" stop-color="#654B1E"/>
<stop offset="1" stop-color="#2E1D12"/>
</linearGradient>
<linearGradient id="paint6_linear_1119_43050" x1="762.209" y1="237.078" x2="781.207" y2="250.077" gradientUnits="userSpaceOnUse">
<stop offset="0.04" stop-color="#654B1E"/>
<stop offset="1" stop-color="#2E1D12"/>
</linearGradient>
<linearGradient id="paint7_linear_1119_43050" x1="662.67" y1="236.269" x2="695.492" y2="249.224" gradientUnits="userSpaceOnUse">
<stop offset="0.04" stop-color="#654B1E"/>
<stop offset="1" stop-color="#2E1D12"/>
</linearGradient>
<linearGradient id="paint8_linear_1119_43050" x1="368.311" y1="136.737" x2="364.71" y2="174.754" gradientUnits="userSpaceOnUse">
<stop offset="0.04" stop-color="#654B1E"/>
<stop offset="1" stop-color="#2E1D12"/>
</linearGradient>
<linearGradient id="paint9_linear_1119_43050" x1="430.977" y1="91.0415" x2="456.656" y2="149.594" gradientUnits="userSpaceOnUse">
<stop stop-color="white"/>
<stop offset="1" stop-color="#DDF1F3"/>
</linearGradient>
<linearGradient id="paint10_linear_1119_43050" x1="392.106" y1="480.159" x2="196.671" y2="570.687" gradientUnits="userSpaceOnUse">
<stop stop-color="white"/>
<stop offset="1" stop-color="#DDF1F3"/>
</linearGradient>
<linearGradient id="paint11_linear_1119_43050" x1="230.85" y1="470.494" x2="122.847" y2="406.863" gradientUnits="userSpaceOnUse">
<stop stop-color="white"/>
<stop offset="1" stop-color="#DDF1F3"/>
</linearGradient>
<linearGradient id="paint12_linear_1119_43050" x1="409.261" y1="497.874" x2="328.638" y2="532.016" gradientUnits="userSpaceOnUse">
<stop stop-color="white"/>
<stop offset="1" stop-color="#DDF1F3"/>
</linearGradient>
<linearGradient id="paint13_linear_1119_43050" x1="529.151" y1="451.926" x2="483.004" y2="464.451" gradientUnits="userSpaceOnUse">
<stop stop-color="white"/>
<stop offset="1" stop-color="#DDF1F3"/>
</linearGradient>
<linearGradient id="paint14_linear_1119_43050" x1="570.903" y1="633.798" x2="559.18" y2="594.733" gradientUnits="userSpaceOnUse">
<stop stop-color="#45A5A5"/>
<stop offset="1" stop-color="#308B85"/>
</linearGradient>
<linearGradient id="paint15_linear_1119_43050" x1="655.053" y1="621.222" x2="651.267" y2="643.628" gradientUnits="userSpaceOnUse">
<stop offset="0.04" stop-color="#654B1E"/>
<stop offset="1" stop-color="#2E1D12"/>
</linearGradient>
<linearGradient id="paint16_linear_1119_43050" x1="456.641" y1="500.969" x2="477.629" y2="520.598" gradientUnits="userSpaceOnUse">
<stop stop-color="#E8E8EB"/>
<stop offset="1" stop-color="#D3D3D3"/>
</linearGradient>
<linearGradient id="paint17_linear_1119_43050" x1="436.025" y1="10.8932" x2="420.115" y2="108.548" gradientUnits="userSpaceOnUse">
<stop stop-color="white"/>
<stop offset="1" stop-color="#DDF1F3"/>
</linearGradient>
<linearGradient id="paint18_linear_1119_43050" x1="326.9" y1="241.674" x2="327.568" y2="249.855" gradientUnits="userSpaceOnUse">
<stop stop-color="#45A5A5"/>
<stop offset="1" stop-color="#308B85"/>
</linearGradient>
<linearGradient id="paint19_linear_1119_43050" x1="223.181" y1="595.713" x2="210.664" y2="567.353" gradientUnits="userSpaceOnUse">
<stop stop-color="#45A5A5"/>
<stop offset="1" stop-color="#308B85"/>
</linearGradient>
<linearGradient id="paint20_linear_1119_43050" x1="420.367" y1="403.783" x2="373.634" y2="421.214" gradientUnits="userSpaceOnUse">
<stop stop-color="white"/>
<stop offset="1" stop-color="#DDF1F3"/>
</linearGradient>
<linearGradient id="paint21_linear_1119_43050" x1="398.237" y1="578.037" x2="410.709" y2="590.51" gradientUnits="userSpaceOnUse">
<stop offset="0.04" stop-color="#654B1E"/>
<stop offset="1" stop-color="#2E1D12"/>
</linearGradient>
<linearGradient id="paint22_linear_1119_43050" x1="580.279" y1="205.512" x2="580.279" y2="224.732" gradientUnits="userSpaceOnUse">
<stop stop-color="#E8E8EB"/>
<stop offset="1" stop-color="#D3D3D3"/>
</linearGradient>
<linearGradient id="paint23_linear_1119_43050" x1="627.384" y1="205.512" x2="627.384" y2="224.732" gradientUnits="userSpaceOnUse">
<stop stop-color="#E8E8EB"/>
<stop offset="1" stop-color="#D3D3D3"/>
</linearGradient>
<linearGradient id="paint24_linear_1119_43050" x1="674.489" y1="205.512" x2="674.489" y2="224.732" gradientUnits="userSpaceOnUse">
<stop stop-color="#E8E8EB"/>
<stop offset="1" stop-color="#D3D3D3"/>
</linearGradient>
<linearGradient id="paint25_linear_1119_43050" x1="721.594" y1="205.512" x2="721.594" y2="224.732" gradientUnits="userSpaceOnUse">
<stop stop-color="#E8E8EB"/>
<stop offset="1" stop-color="#D3D3D3"/>
</linearGradient>
<linearGradient id="paint26_linear_1119_43050" x1="768.698" y1="205.512" x2="768.698" y2="224.732" gradientUnits="userSpaceOnUse">
<stop stop-color="#E8E8EB"/>
<stop offset="1" stop-color="#D3D3D3"/>
</linearGradient>
<linearGradient id="paint27_linear_1119_43050" x1="903.346" y1="365.312" x2="896.724" y2="375.542" gradientUnits="userSpaceOnUse">
<stop stop-color="#AAC76F"/>
<stop offset="1" stop-color="#609640"/>
</linearGradient>
<linearGradient id="paint28_linear_1119_43050" x1="953.888" y1="502.401" x2="956.479" y2="512.402" gradientUnits="userSpaceOnUse">
<stop stop-color="#AAC76F"/>
<stop offset="1" stop-color="#609640"/>
</linearGradient>
<linearGradient id="paint29_linear_1119_43050" x1="787.889" y1="537.784" x2="759.953" y2="552.112" gradientUnits="userSpaceOnUse">
<stop stop-color="#AAC76F"/>
<stop offset="1" stop-color="#609640"/>
</linearGradient>
<linearGradient id="paint30_linear_1119_43050" x1="934.467" y1="475.69" x2="924.786" y2="463.077" gradientUnits="userSpaceOnUse">
<stop stop-color="#C98348"/>
<stop offset="1" stop-color="#DD9127"/>
</linearGradient>
<linearGradient id="paint31_linear_1119_43050" x1="925.626" y1="430.137" x2="926.91" y2="416.047" gradientUnits="userSpaceOnUse">
<stop stop-color="#F7B381"/>
<stop offset="1" stop-color="#FCD7BA"/>
</linearGradient>
<linearGradient id="paint32_linear_1119_43050" x1="866.895" y1="443.537" x2="892.567" y2="430.375" gradientUnits="userSpaceOnUse">
<stop stop-color="#F7B381"/>
<stop offset="1" stop-color="#FCD7BA"/>
</linearGradient>
<linearGradient id="paint33_linear_1119_43050" x1="955.002" y1="526.144" x2="913.295" y2="564.637" gradientUnits="userSpaceOnUse">
<stop stop-color="#F7B381"/>
<stop offset="1" stop-color="#FCD7BA"/>
</linearGradient>
<linearGradient id="paint34_linear_1119_43050" x1="710.265" y1="626.649" x2="721.683" y2="648.965" gradientUnits="userSpaceOnUse">
<stop stop-color="#E8E8EB"/>
<stop offset="1" stop-color="#D3D3D3"/>
</linearGradient>
<linearGradient id="paint35_linear_1119_43050" x1="818.795" y1="617.205" x2="877.978" y2="690.494" gradientUnits="userSpaceOnUse">
<stop stop-color="#E8E8EB"/>
<stop offset="1" stop-color="#D3D3D3"/>
</linearGradient>
<linearGradient id="paint36_linear_1119_43050" x1="907.504" y1="645.988" x2="789.76" y2="633.204" gradientUnits="userSpaceOnUse">
<stop stop-color="#E8E8EB"/>
<stop offset="1" stop-color="#D3D3D3"/>
</linearGradient>
<linearGradient id="paint37_linear_1119_43050" x1="842.759" y1="664.028" x2="855.409" y2="625.178" gradientUnits="userSpaceOnUse">
<stop stop-color="#E8E8EB"/>
<stop offset="1" stop-color="#D3D3D3"/>
</linearGradient>
<linearGradient id="paint38_linear_1119_43050" x1="876.955" y1="640.071" x2="881.58" y2="660.702" gradientUnits="userSpaceOnUse">
<stop stop-color="#AAC76F"/>
<stop offset="1" stop-color="#609640"/>
</linearGradient>
<linearGradient id="paint39_linear_1119_43050" x1="422.87" y1="58.7626" x2="441.282" y2="-0.866361" gradientUnits="userSpaceOnUse">
<stop stop-color="white"/>
<stop offset="1" stop-color="#DDF1F3"/>
</linearGradient>
<linearGradient id="paint40_linear_1119_43050" x1="859.589" y1="610.947" x2="854.437" y2="589.365" gradientUnits="userSpaceOnUse">
<stop stop-color="#C98348"/>
<stop offset="1" stop-color="#DD9127"/>
</linearGradient>
<linearGradient id="paint41_linear_1119_43050" x1="846.241" y1="332.208" x2="856.59" y2="352.194" gradientUnits="userSpaceOnUse">
<stop stop-color="#E94E4E"/>
<stop offset="1" stop-color="#D33332"/>
</linearGradient>
<linearGradient id="paint42_linear_1119_43050" x1="860.51" y1="531.734" x2="848.825" y2="482.112" gradientUnits="userSpaceOnUse">
<stop stop-color="#51823B"/>
<stop offset="1" stop-color="#AAC76F"/>
</linearGradient>
<linearGradient id="paint43_linear_1119_43050" x1="801.112" y1="606.493" x2="803.183" y2="615.959" gradientUnits="userSpaceOnUse">
<stop stop-color="#E94E4E"/>
<stop offset="1" stop-color="#D33332"/>
</linearGradient>
</defs>
</svg>
